<svg id="Layer_1" data-name="Layer 1" xmlns="http://www.w3.org/2000/svg" viewBox="0 0 273.96 56.43">
  <g>
    <path d="M26.06,39.88c0,3.2-.25,5.28-.74,6.27a4.24,4.24,0,0,1-2,2.06,9,9,0,0,1-3.66.58H18.23l1,5.18a17,17,0,0,0,1.81.17A10.83,10.83,0,0,0,27,52.59a8.86,8.86,0,0,0,3.55-4.12c.74-1.71,1.1-4.36,1.1-7.95V28H26.06Z" style="fill: #f9a821"/>
    <rect x="26.06" y="2.14" width="5.57" height="16.07" style="fill: #f9a821"/>
    <polygon points="54.58 10.46 58.03 18.21 63.85 18.21 56.58 1.91 52.67 1.91 45.71 18.21 51.38 18.21 54.58 10.46" style="fill: #f9a821"/>
    <path d="M84.74,10.93A14.68,14.68,0,0,1,95.49,6.59a27.36,27.36,0,0,1,13.8,4V5a51.93,51.93,0,0,0-7.46-2.61,26.66,26.66,0,0,0-6.23-.71,20.72,20.72,0,0,0-15,5.79,19,19,0,0,0-5.67,10.79h5.81A14.22,14.22,0,0,1,84.74,10.93Z" style="fill: #f9a821"/>
    <path d="M104.5,34.93l-.52.17a26.29,26.29,0,0,1-8,1.53,15.52,15.52,0,0,1-11.25-4.21A13.8,13.8,0,0,1,81.64,28H75.51a18.45,18.45,0,0,0,4.87,7.82q5.78,5.64,15.44,5.64a35.56,35.56,0,0,0,14.25-3.12V28H104.5Z" style="fill: #f9a821"/>
    <path d="M144.12,31.84A13.43,13.43,0,0,1,141.29,34a15.37,15.37,0,0,1-3.85,1.44A28.53,28.53,0,0,1,131,36h-7.12V28h-5.57V41h12.3a55.27,55.27,0,0,0,7-.29,19.61,19.61,0,0,0,4-1.16,18.6,18.6,0,0,0,6.6-4.2,18.8,18.8,0,0,0,4.29-6.26c.15-.35.26-.7.38-1h-6.07A14.13,14.13,0,0,1,144.12,31.84Z" style="fill: #f9a821"/>
    <path d="M123.83,7.09h7a37.85,37.85,0,0,1,5.81.31,14.72,14.72,0,0,1,3.83,1.25A13.51,13.51,0,0,1,144,11.07,12.87,12.87,0,0,1,148,18.21h5.77a19.43,19.43,0,0,0-2.45-6.69,17.87,17.87,0,0,0-7.35-7q-4.62-2.38-12.55-2.38H118.26V18.21h5.57Z" style="fill: #f9a821"/>
    <polygon points="166.53 7.09 183.01 7.09 183.01 2.13 160.96 2.13 160.96 18.21 166.53 18.21 166.53 7.09" style="fill: #f9a821"/>
    <polygon points="160.96 40.97 183.54 40.97 183.54 36.02 166.53 36.02 166.53 28.01 160.96 28.01 160.96 40.97" style="fill: #f9a821"/>
    <polygon points="189.47 40.97 212.05 40.97 212.05 36.02 195.04 36.02 195.04 28.01 189.47 28.01 189.47 40.97" style="fill: #f9a821"/>
    <polygon points="195.04 7.09 211.52 7.09 211.52 2.13 189.47 2.13 189.47 18.21 195.04 18.21 195.04 7.09" style="fill: #f9a821"/>
    <rect x="217.67" y="28.01" width="5.6" height="13.02" style="fill: #f9a821"/>
    <path d="M223.26,7H229q7.4,0,7.4,6a5.76,5.76,0,0,1-1.83,4.58,6.88,6.88,0,0,1-.88.61H241a11.08,11.08,0,0,0,1.17-5.05,10.35,10.35,0,0,0-3.32-8.07,12.69,12.69,0,0,0-8.88-3H217.67V18.21h5.59Z" style="fill: #f9a821"/>
    <path d="M240.41,34.82a3.31,3.31,0,0,0-3.36,3.37,3.12,3.12,0,0,0,1,2.33,3.27,3.27,0,0,0,2.39.95,3.36,3.36,0,0,0,2.44-.95,3.1,3.1,0,0,0,1-2.33,3.25,3.25,0,0,0-1-2.4A3.36,3.36,0,0,0,240.41,34.82Z" style="fill: #7d7c7d"/>
    <path d="M259.61,17.61a16.13,16.13,0,0,1-4.15-3.2,5,5,0,0,1-1.29-3.27,3.82,3.82,0,0,1,1.75-3.23,7.49,7.49,0,0,1,4.48-1.26,12.86,12.86,0,0,1,9.05,4V4.37a15.71,15.71,0,0,0-8.94-2.74,11.94,11.94,0,0,0-8.28,2.87A9.58,9.58,0,0,0,249,12a9,9,0,0,0,1.69,5.42,9.38,9.38,0,0,0,.67.83h9.22Z" style="fill: #7d7c7d"/>
    <path d="M265.75,31.47A4.58,4.58,0,0,1,264,35.12a6.57,6.57,0,0,1-4.36,1.45q-5.92,0-10.44-5.71v7.07a17.12,17.12,0,0,0,10.5,3.54,11.45,11.45,0,0,0,8.14-2.92A9.91,9.91,0,0,0,271,31a10.93,10.93,0,0,0-.4-2.94h-6.12A5.62,5.62,0,0,1,265.75,31.47Z" style="fill: #7d7c7d"/>
  </g>
  <polygon points="46.59 29.5 47.19 28.01 41.53 28.01 35.97 41.03 41.69 41.03 46.55 29.5 46.59 29.5" style="fill: #f9a821"/>
  <polygon points="68.22 28.01 62.55 28.01 63.81 31 68.32 41.03 74.02 41.03 68.22 28.01" style="fill: #f9a821"/>
</svg>
