<svg id="Layer_1" data-name="Layer 1" xmlns="http://www.w3.org/2000/svg" viewBox="0 0 57.45 57.93">
  <g id="insta">
    <path id="Path_8" data-name="Path 8" d="M53.74,29.46A24.36,24.36,0,1,1,29.39,5.1h0A24.36,24.36,0,0,1,53.74,29.46Z" style="fill: #a9742a"/>
    <g id="Group_5" data-name="Group 5">
      <path id="Path_9" data-name="Path 9" d="M38.73,14.24H20.05a5.88,5.88,0,0,0-5.88,5.88V38.8a5.88,5.88,0,0,0,5.88,5.88H38.73a5.88,5.88,0,0,0,5.88-5.88V20.12A5.88,5.88,0,0,0,38.73,14.24Zm1.69,3.51h.67v5.16H36l0-5.16ZM25,26.34a5.35,5.35,0,1,1-1,3.12,5.35,5.35,0,0,1,1-3.12ZM41.64,38.8a2.92,2.92,0,0,1-2.92,2.92H20.05a2.92,2.92,0,0,1-2.92-2.92V26.34h4.54a8.33,8.33,0,1,0,15.43,0h4.54Z" style="fill: #fff"/>
    </g>
  </g>
</svg>
