<svg id="Layer_1" data-name="Layer 1" xmlns="http://www.w3.org/2000/svg" viewBox="0 0 57.45 57.93">
  <g id="linkdin">
    <path id="Path_5" data-name="Path 5" d="M53.62,29.46a25,25,0,1,1-24.95-25h0a25,25,0,0,1,24.95,25Z" style="fill: #a9742a"/>
    <g id="Group_4" data-name="Group 4">
      <rect id="Rectangle_9" data-name="Rectangle 9" x="13.53" y="24.15" width="7.21" height="20.73" style="fill: #fff"/>
      <path id="Path_6" data-name="Path 6" d="M16.71,21.14a3.64,3.64,0,1,0-3.64-3.64A3.64,3.64,0,0,0,16.71,21.14Z" style="fill: #fff"/>
      <path id="Path_7" data-name="Path 7" d="M44.26,33.63c0-5.61-1.21-9.37-7.75-9.37-3.14,0-5.25,1.17-6.11,2.81h-.09V24.26h-5.8V45.05h6.06V34.75c0-2.72.51-5.35,3.87-5.35S38,32.51,38,34.93V45.05h6.24Z" style="fill: #fff"/>
    </g>
  </g>
</svg>
